<svg width="878" height="920" viewBox="0 0 878 920" fill="none" xmlns="http://www.w3.org/2000/svg" xmlns:xlink="http://www.w3.org/1999/xlink">
<path d="M828.533,341.868C913.467,355.866 888.267,786.132 749.201,867.334C610.133,948.536 266.667,935.042 266.667,828.132C266.667,721.222 397.333,667.598 496.267,631.2C595.201,594.8 601.549,488.377 645.601,441.734C693.201,391.332 743.601,327.87 828.533,341.868Z" fill="#D9D9D9"/>
<path d="M361.431,611.652L232.187,491.158L30.329,707.9L13.937,692.634L157.574,538.406L104.668,489.468L26.605,573.49L10.195,558.242L146.629,411.394L17.684,291.18L17.259,291.636L0.871,276.364L230.471,29.965L246.859,45.235L123.935,177.154L186.244,235.012L303.627,108.458L311.839,116.075L194.451,242.634L252.951,296.956L414.031,123.581L298.239,15.936L313.491,-0.47L429.277,107.171L499.261,31.843L515.673,47.09L445.683,122.422L504.873,177.449L622.833,50.587L631.035,58.213L513.077,185.074L640.263,303.314L839.001,89.704L855.401,104.962L656.669,318.564L684.957,344.864C689.487,349.074 689.747,356.162 685.535,360.692C681.323,365.222 674.237,365.48 669.705,361.27L641.411,334.964L582.777,397.984C582.507,398.874 582.167,399.982 581.761,401.292C580.605,405.02 578.905,410.378 576.719,416.946C572.353,430.074 566.037,448.084 558.233,467.592C542.875,505.986 520.937,552.368 495.787,577.52C470.943,602.362 442.561,609.854 416.431,616.752L416.349,616.774C415.397,617.024 414.449,617.276 413.503,617.526C386.355,624.718 360.971,632.068 337.119,655.92L205.519,787.52L189.681,771.68L321.281,640.08C334.373,626.988 347.931,618.12 361.431,611.652ZM625.005,319.712L497.823,201.478L442.365,261.122L569.441,379.436L625.005,319.712ZM558.677,400.02L540.169,382.788L358.437,578.236L384.435,602.474L384.309,602.61C392.295,600.004 400.151,597.89 407.765,595.874L409.271,595.474C436.295,588.32 459.435,582.192 479.947,561.68C501.463,540.164 521.993,497.88 537.435,459.274C545.031,440.282 551.197,422.708 555.465,409.878C556.699,406.164 557.775,402.85 558.677,400.02ZM531.973,375.156L429.273,279.54L293.353,425.482L396.773,520.56L531.973,375.156ZM434.167,253.49L489.621,193.853L430.437,138.833L375.047,198.449L434.167,253.49ZM359.801,214.86L412.879,264.276L372.571,307.556L319.937,257.766L359.801,214.86ZM312.313,265.972L364.939,315.752L272.281,415.242L219.175,366.222L312.313,265.972ZM211.551,374.426L264.647,423.438L231.069,459.492L178.26,410.258L211.551,374.426ZM163.013,426.668L215.803,475.884L172.84,522.014L119.915,473.058L163.013,426.668ZM285.721,433.678L247.453,474.766L350.245,570.598L389.145,528.762L285.721,433.678ZM245.329,305.16L161.876,394.984L72.511,311.67L155.892,222.112L245.329,305.16ZM147.684,214.492L64.319,304.032L32.954,274.792L116.299,185.348L147.684,214.492Z" clip-rule="evenodd" fill-rule="evenodd" fill="#FFFFFF"/>
</svg>
