<svg width="32" height="44" viewBox="0 0 32 44" fill="none" xmlns="http://www.w3.org/2000/svg" xmlns:xlink="http://www.w3.org/1999/xlink">
<path d="M17.669,41.874C20.429,38.161 26.041,30.521 28.402,26.669C30.29,23.59 32,20.258 32,16.342C32,7.316 24.836,0 15.999,0C7.164,0 0,7.316 0,16.342C0,20.293 1.68,23.68 3.654,26.74C6.055,30.468 11.719,38.145 14.493,41.874C15.288,42.942 16.875,42.943 17.669,41.874ZM16,22C19.313,22 22,19.311 22,16.001C22,12.689 19.313,10 16,10C12.687,10 10,12.689 10,16.001C10,19.311 12.687,22 16,22Z" clip-rule="evenodd" fill-rule="evenodd" fill="#000000" fill-opacity="0.3"/>
</svg>
